<?xml version="1.0" encoding="UTF-8"?>
<svg id="logo" xmlns="http://www.w3.org/2000/svg" xmlns:xlink="http://www.w3.org/1999/xlink" viewBox="0 0 686.89 921.59">
  <defs>
    <style>
      .cls-1 {
        fill: url(#linear-gradient-2);
      }

      .cls-2 {
        fill: url(#linear-gradient-6);
      }

      .cls-3 {
        filter: url(#drop-shadow-1);
      }

      .cls-4 {
        fill: url(#radial-gradient);
      }

      .cls-5 {
        filter: url(#drop-shadow-2);
      }

      .cls-6 {
        fill: url(#linear-gradient-5);
      }

      .cls-7 {
        fill: url(#radial-gradient-2);
      }

      .cls-8 {
        fill: url(#linear-gradient-7);
      }

      .cls-9 {
        fill: url(#linear-gradient-3);
      }

      .cls-10 {
        fill: url(#linear-gradient);
      }

      .cls-11 {
        fill: url(#linear-gradient-4);
      }
    </style>
    <filter id="drop-shadow-1" filterUnits="userSpaceOnUse">
      <feOffset dx="2" dy="6"/>
      <feGaussianBlur result="blur" stdDeviation="3"/>
      <feFlood flood-color="#000" flood-opacity=".42"/>
      <feComposite in2="blur" operator="in"/>
      <feComposite in="SourceGraphic"/>
    </filter>
    <linearGradient id="linear-gradient" x1="0" y1="850.63" x2="133.87" y2="850.63" gradientUnits="userSpaceOnUse">
      <stop offset="0" stop-color="#81b9f2"/>
      <stop offset=".04" stop-color="#78aee6"/>
      <stop offset=".17" stop-color="#5c8abe"/>
      <stop offset=".29" stop-color="#4871a2"/>
      <stop offset=".4" stop-color="#3c6191"/>
      <stop offset=".48" stop-color="#385c8b"/>
      <stop offset=".61" stop-color="#345684"/>
      <stop offset=".8" stop-color="#294770"/>
      <stop offset=".99" stop-color="#1b3356"/>
    </linearGradient>
    <linearGradient id="linear-gradient-2" x1="142.8" x2="283.57" xlink:href="#linear-gradient"/>
    <linearGradient id="linear-gradient-3" x1="346.04" y1="794.79" x2="373.63" y2="794.79" xlink:href="#linear-gradient"/>
    <linearGradient id="linear-gradient-4" x1="266.12" y1="878.31" x2="373.63" y2="878.31" xlink:href="#linear-gradient"/>
    <linearGradient id="linear-gradient-5" x1="404.05" x2="529.81" xlink:href="#linear-gradient"/>
    <linearGradient id="linear-gradient-6" x1="550.99" x2="686.89" xlink:href="#linear-gradient"/>
    <linearGradient id="linear-gradient-7" x1="596" y1="901.51" x2="641.88" y2="901.51" xlink:href="#linear-gradient"/>
    <filter id="drop-shadow-2" filterUnits="userSpaceOnUse">
      <feOffset dx="0" dy="10"/>
      <feGaussianBlur result="blur-2" stdDeviation="7"/>
      <feFlood flood-color="#000" flood-opacity=".42"/>
      <feComposite in2="blur-2" operator="in"/>
      <feComposite in="SourceGraphic"/>
    </filter>
    <radialGradient id="radial-gradient" cx="348.92" cy="355.23" fx="348.92" fy="355.23" r="346.27" gradientUnits="userSpaceOnUse">
      <stop offset="0" stop-color="#81b9f2"/>
      <stop offset=".1" stop-color="#7db4ec"/>
      <stop offset=".22" stop-color="#72a6dd"/>
      <stop offset=".36" stop-color="#608fc3"/>
      <stop offset=".5" stop-color="#476fa0"/>
      <stop offset=".57" stop-color="#385c8b"/>
      <stop offset=".69" stop-color="#355886"/>
      <stop offset=".81" stop-color="#2e4e79"/>
      <stop offset=".93" stop-color="#223e64"/>
      <stop offset=".99" stop-color="#1b3356"/>
    </radialGradient>
    <radialGradient id="radial-gradient-2" cx="343" cy="345.03" fx="343" fy="345.03" r="76.25" xlink:href="#radial-gradient"/>
  </defs>
  <g id="font" class="cls-3">
    <path class="cls-10" d="m74.64,806.67c17.04,0,28.6,5.91,37.53,17.15l21.7-16.56c-14.2-17.74-33.88-27.4-59.23-27.4C32.66,779.85,0,811.59,0,850.63s32.66,70.77,74.64,70.77c25.35,0,45.03-9.66,59.23-27.4l-21.7-16.56c-8.92,11.24-20.49,17.15-37.53,17.15-26.77,0-47.06-19.71-47.06-43.96s20.28-43.96,47.06-43.96Z"/>
    <polygon class="cls-1" points="249.29 781.23 213.18 829.34 177.08 781.23 142.8 781.23 199.19 856.15 199.19 920.02 227.18 920.02 227.18 856.15 283.57 781.23 249.29 781.23"/>
    <polygon class="cls-9" points="373.63 807.95 373.63 781.63 346.04 781.63 373.63 807.95"/>
    <path class="cls-11" d="m346.04,866c0,15.97-13.39,28.78-29.61,28.78-11.16,0-20.89-6.11-25.96-15.57l-24.34,13.21c9.94,17.94,29.21,29.17,50.31,29.17,31.44,0,56.8-24.44,57.2-54.6v-31.96h-27.59v30.98Z"/>
    <polygon class="cls-6" points="502.02 874.48 432.04 781.23 404.05 781.23 404.05 920.02 431.63 920.02 431.63 826.38 501.82 920.02 529.81 920.02 529.81 781.23 502.02 781.23 502.02 874.48"/>
    <polygon class="cls-2" points="633.95 781.23 603.93 781.23 550.99 920.02 580.2 920.02 592.68 887.6 592.69 887.59 595 881.57 595.01 881.57 608.69 846.2 618.94 819.48 629.19 846.2 642.87 881.57 642.87 881.57 645.19 887.59 645.2 887.6 657.68 920.02 686.89 920.02 633.95 781.23"/>
    <polygon class="cls-8" points="617.95 920.02 641.88 883 596 883 617.95 920.02"/>
  </g>
  <g id="logo-2" data-name="logo" class="cls-5">
    <path class="cls-4" d="m686,338.48C686,151.84,530.83,0,340.1,0c-96.09,0-188.51,39.54-253.81,108.52-.63.67-.61,1.72.04,2.36l85.86,85.68c.69.69,1.81.65,2.46-.08,41.75-46.85,101.94-73.69,165.46-73.69,9.2,0,18.27.56,27.18,1.64,42.06,5.11,80.46,21.9,111.69,46.96.57.45.6,1.31.07,1.81l-40.92,38.75c-.53.5-1.34.56-1.94.14-27.13-19.14-59.6-29.79-93.3-29.79-89.73,0-162.72,72.99-162.72,162.72s72.99,162.72,162.72,162.72c35.17,0,66.91-10.08,93.95-29.57l35.35,33.16c-36.9,26.95-82.63,42.9-132.09,42.9s-89.41-16.54-119.33-40.56c-14.44-11.59-44.57-43.48-48.61-47.78-.25-.27-.67-.27-.94-.01l-80.25,77.39c-1.03.99-2.66.93-3.6-.13-11.62-13.08-77.12-91.92-74.57-204.64,1.72-76.26,16.37-132.82,57.43-194.37C24.77,204.17,0,277.45,0,353.17c0,38.47,6.11,75.54,17.42,110.3,11.68,35.91,28.92,69.34,50.68,99.27.35.52.73,1.02,1.12,1.52,15.19,20.7,32.58,39.72,51.81,56.68.45.41.91.82,1.38,1.23,62.84,54.94,145.06,88.28,234.9,88.28s181.13-35.55,248.05-100.14c.45-.43.47-1.15.04-1.61l-49.49-52.86c-.59-.63-1.58-.63-2.18,0-59,62.78-141.78,95.09-227.58,95.09-66.07,0-127.42-20.73-178.01-56.09-.89-.62-1.06-1.87-.37-2.7l23.37-28.73c.66-.81,1.84-.93,2.65-.27,32.01,25.8,72.03,43.22,113.81,51.81,20.11,4.14,40.63,6.23,60.86,6.23,148.18,0,268.72-120.54,268.72-268.72S496.65,83.74,348.47,83.74c-64.36,0-126.41,23.22-174.8,64.66-1.03.88-2.56.84-3.52-.12l-43.03-42.44c-.69-.68-.66-1.81.07-2.45,60.3-53.02,138.55-82.88,219.42-82.88,183.03,0,331.95,148.9,331.95,331.95,0,52.67-12.2,103.83-36.2,150.89,28.9-51.06,43.64-106.93,43.64-164.87Zm-163.8-122.47c23.57,34.3,37.34,77.29,37.34,121.57,0,48.82-14.86,95.75-43.03,131.87-.5.65-1.47.71-2.05.14l-74.29-72.24c-.62-.6-1.63-.44-2.04.31-19.2,34.67-55.53,56.15-95.23,56.15-13.1,0-25.66-2.33-37.3-6.58-41.68-15.25-71.5-55.31-71.5-102.21,0-59.99,48.8-108.79,108.79-108.79,38.79,0,74.69,20.75,94.15,54.25.45.77,1.48.93,2.13.33l79.6-75.16c1.01-.95,2.65-.79,3.43.35Z"/>
    <path class="cls-7" d="m346.3,268.85c-18.06-.76-34.79,4.77-48.21,14.58-.4.29-.11.91.37.81,2.87-.62,5.92-.76,9.06-.34,11.54,1.54,20.81,10.89,22.25,22.44,2.11,16.92-12.02,31.15-28.91,29.21-11.15-1.28-20.41-9.86-22.48-20.89-.38-2.04-.52-4.05-.45-6.01.04-.95-1.22-1.3-1.68-.47-6.73,12.15-10.24,26.32-9.37,41.39,2.24,38.54,33.68,69.7,72.24,71.61,44.22,2.19,80.7-33.31,80.12-77.19-.53-40.14-32.83-73.44-72.94-75.14Z"/>
  </g>
</svg>